HIERARCHY
ROOT Hips
{
	OFFSET 0.000000 71.427986 0.000000
	CHANNELS 6 Xposition Yposition Zposition Xrotation Yrotation Zrotation
	JOINT Pelvis
	{
		OFFSET 0.000000 0.000000 0.000000
		CHANNELS 3 Xrotation Yrotation Zrotation
		JOINT LeftUpLeg
		{
			OFFSET 6.797100 -2.508499 -1.318700
			CHANNELS 3 Xrotation Yrotation Zrotation
			JOINT LeftLeg
			{
				OFFSET 0.069008 -29.241863 0.690200
				CHANNELS 3 Xrotation Yrotation Zrotation
				JOINT LeftFoot
				{
					OFFSET -0.069008 -29.568123 -0.266800
					CHANNELS 3 Xrotation Yrotation Zrotation
					JOINT LeftToeBase
					{
						OFFSET 3.145500 -8.631000 16.059900
						CHANNELS 3 Xrotation Yrotation Zrotation
						End Site
						{
							OFFSET 0.000000 18.501587 0.000000
						}
					}
				}
			}
			JOINT Left_ShortSleeve
			{
				OFFSET 0.265923 -10.480953 1.153800
				CHANNELS 3 Xrotation Yrotation Zrotation
				End Site
				{
					OFFSET 1.725763 19.823879 0.000000
				}
			}
		}
		JOINT RightUpLeg
		{
			OFFSET -6.797100 -2.508499 -1.318700
			CHANNELS 3 Xrotation Yrotation Zrotation
			JOINT RightLeg
			{
				OFFSET -0.082453 -29.241932 0.688000
				CHANNELS 3 Xrotation Yrotation Zrotation
				JOINT RightFoot
				{
					OFFSET 0.082453 -29.568058 -0.264600
					CHANNELS 3 Xrotation Yrotation Zrotation
					JOINT RightToeBase
					{
						OFFSET -3.115300 -8.682800 16.113400
						CHANNELS 3 Xrotation Yrotation Zrotation
						End Site
						{
							OFFSET 0.000000 18.567114 0.000000
						}
					}
				}
			}
			JOINT Right_ShortSleeve
			{
				OFFSET -0.265923 -10.480953 1.153800
				CHANNELS 3 Xrotation Yrotation Zrotation
				End Site
				{
					OFFSET -1.725766 19.823910 0.000000
				}
			}
		}
	}
	JOINT Spine
	{
		OFFSET 0.000000 13.368103 0.470500
		CHANNELS 3 Xrotation Yrotation Zrotation
		JOINT Spine1
		{
			OFFSET 0.147000 13.837402 0.538800
			CHANNELS 3 Xrotation Yrotation Zrotation
			JOINT Spine2
			{
				OFFSET 0.168000 16.242897 -1.435500
				CHANNELS 3 Xrotation Yrotation Zrotation
				JOINT Neck
				{
					OFFSET 0.217200 18.631500 -1.679100
					CHANNELS 3 Xrotation Yrotation Zrotation
					JOINT Head
					{
						OFFSET 0.000000 6.599396 1.385900
						CHANNELS 3 Xrotation Yrotation Zrotation
						JOINT Hat
						{
							OFFSET -0.532200 27.220596 -10.096100
							CHANNELS 3 Xrotation Yrotation Zrotation
							End Site
							{
								OFFSET 0.000000 22.029861 0.000000
							}
						}
						JOINT HairD
						{
							OFFSET -10.777400 17.437393 -1.325900
							CHANNELS 3 Xrotation Yrotation Zrotation
							JOINT HairD1
							{
								OFFSET -3.290299 -11.051193 1.062200
								CHANNELS 3 Xrotation Yrotation Zrotation
								End Site
								{
									OFFSET 0.000000 11.579437 0.000000
								}
							}
						}
						JOINT HairB
						{
							OFFSET -10.777400 17.437393 1.467900
							CHANNELS 3 Xrotation Yrotation Zrotation
							JOINT HairB1
							{
								OFFSET -1.561200 -12.956299 3.590200
								CHANNELS 3 Xrotation Yrotation Zrotation
								End Site
								{
									OFFSET 0.000000 13.534866 0.000000
								}
							}
						}
						JOINT HairA
						{
							OFFSET 9.713100 17.437393 1.467900
							CHANNELS 3 Xrotation Yrotation Zrotation
							JOINT HairA1
							{
								OFFSET 1.561200 -12.956299 3.590200
								CHANNELS 3 Xrotation Yrotation Zrotation
								End Site
								{
									OFFSET 0.000000 13.534866 0.000000
								}
							}
						}
						JOINT HairC
						{
							OFFSET 9.713100 17.437393 -1.325900
							CHANNELS 3 Xrotation Yrotation Zrotation
							JOINT HairC1
							{
								OFFSET 3.290300 -11.051193 1.062200
								CHANNELS 3 Xrotation Yrotation Zrotation
								End Site
								{
									OFFSET 0.000000 11.579437 0.000000
								}
							}
						}
					}
				}
				JOINT LeftShoulder
				{
					OFFSET 5.101800 15.108002 -2.763700
					CHANNELS 3 Xrotation Yrotation Zrotation
					JOINT LeftArm
					{
						OFFSET 9.825497 2.506317 -1.597400
						CHANNELS 3 Xrotation Yrotation Zrotation
						JOINT LeftForeArm
						{
							OFFSET 21.966244 0.000000 0.000000
							CHANNELS 3 Xrotation Yrotation Zrotation
							JOINT LeftHand
							{
								OFFSET 33.879036 0.000000 0.000000
								CHANNELS 3 Xrotation Yrotation Zrotation
								JOINT LeftHandThumb1
								{
									OFFSET 6.715286 -2.359680 3.363841
									CHANNELS 3 Xrotation Yrotation Zrotation
									JOINT LeftHandThumb2
									{
										OFFSET 2.507072 -1.447464 1.447461
										CHANNELS 3 Xrotation Yrotation Zrotation
										JOINT LeftHandThumb3
										{
											OFFSET 2.898338 -1.673355 1.673357
											CHANNELS 3 Xrotation Yrotation Zrotation
											End Site
											{
												OFFSET -0.295959 3.727692 -0.131651
											}
										}
									}
								}
								JOINT LeftHandIndex1
								{
									OFFSET 14.190811 -0.254547 3.840278
									CHANNELS 3 Xrotation Yrotation Zrotation
									JOINT LeftHandIndex2
									{
										OFFSET 3.551727 0.000000 -0.000000
										CHANNELS 3 Xrotation Yrotation Zrotation
										JOINT LeftHandIndex3
										{
											OFFSET 2.894196 0.000000 0.000000
											CHANNELS 3 Xrotation Yrotation Zrotation
											End Site
											{
												OFFSET -1.000603 2.690872 0.366626
											}
										}
									}
								}
								JOINT LeftHandMiddle1
								{
									OFFSET 13.776489 0.000000 0.000000
									CHANNELS 3 Xrotation Yrotation Zrotation
									JOINT LeftHandMiddle2
									{
										OFFSET 3.438232 0.000000 0.000000
										CHANNELS 3 Xrotation Yrotation Zrotation
										JOINT LeftHandMiddle3
										{
											OFFSET 3.691551 0.000000 0.000000
											CHANNELS 3 Xrotation Yrotation Zrotation
											End Site
											{
												OFFSET -1.082298 3.499527 0.457670
											}
										}
									}
								}
								JOINT LeftHandRing1
								{
									OFFSET 13.966164 -0.268127 -3.067488
									CHANNELS 3 Xrotation Yrotation Zrotation
									JOINT LeftHandRing2
									{
										OFFSET 3.162567 0.000000 0.000000
										CHANNELS 3 Xrotation Yrotation Zrotation
										JOINT LeftHandRing3
										{
											OFFSET 3.324348 0.000000 0.000000
											CHANNELS 3 Xrotation Yrotation Zrotation
											End Site
											{
												OFFSET -0.861900 3.184998 0.405154
											}
										}
									}
								}
								JOINT LeftHandPinky1
								{
									OFFSET 13.131393 -0.168503 -5.746925
									CHANNELS 3 Xrotation Yrotation Zrotation
									JOINT LeftHandPinky2
									{
										OFFSET 2.849182 0.000000 0.000000
										CHANNELS 3 Xrotation Yrotation Zrotation
										JOINT LeftHandPinky3
										{
											OFFSET 2.805038 0.000000 0.000000
											CHANNELS 3 Xrotation Yrotation Zrotation
											End Site
											{
												OFFSET -0.882500 2.642609 0.325652
											}
										}
									}
								}
							}
							JOINT Left_Sleeve
							{
								OFFSET 6.592125 -0.646545 0.805568
								CHANNELS 3 Xrotation Yrotation Zrotation
								End Site
								{
									OFFSET -0.000179 20.275787 -0.000000
								}
							}
						}
					}
				}
				JOINT RightShoulder
				{
					OFFSET -5.731700 15.108002 -2.763700
					CHANNELS 3 Xrotation Yrotation Zrotation
					JOINT RightArm
					{
						OFFSET -9.825497 2.506317 -1.597400
						CHANNELS 3 Xrotation Yrotation Zrotation
						JOINT RightForeArm
						{
							OFFSET -21.966242 0.000000 0.000000
							CHANNELS 3 Xrotation Yrotation Zrotation
							JOINT RightHand
							{
								OFFSET -33.879032 0.000000 0.000000
								CHANNELS 3 Xrotation Yrotation Zrotation
								JOINT RightHandThumb1
								{
									OFFSET -6.715286 -2.359680 3.363841
									CHANNELS 3 Xrotation Yrotation Zrotation
									JOINT RightHandThumb2
									{
										OFFSET -2.507072 -1.447464 1.447461
										CHANNELS 3 Xrotation Yrotation Zrotation
										JOINT RightHandThumb3
										{
											OFFSET -2.898338 -1.673355 1.673357
											CHANNELS 3 Xrotation Yrotation Zrotation
											End Site
											{
												OFFSET 0.295959 3.727692 -0.131651
											}
										}
									}
								}
								JOINT RightHandIndex1
								{
									OFFSET -14.190811 -0.254547 3.840278
									CHANNELS 3 Xrotation Yrotation Zrotation
									JOINT RightHandIndex2
									{
										OFFSET -3.551727 0.000000 -0.000000
										CHANNELS 3 Xrotation Yrotation Zrotation
										JOINT RightHandIndex3
										{
											OFFSET -2.894196 0.000000 0.000000
											CHANNELS 3 Xrotation Yrotation Zrotation
											End Site
											{
												OFFSET 1.000603 2.690872 0.366626
											}
										}
									}
								}
								JOINT RightHandMiddle1
								{
									OFFSET -13.776489 0.000000 0.000000
									CHANNELS 3 Xrotation Yrotation Zrotation
									JOINT RightHandMiddle2
									{
										OFFSET -3.438232 0.000000 0.000000
										CHANNELS 3 Xrotation Yrotation Zrotation
										JOINT RightHandMiddle3
										{
											OFFSET -3.691551 0.000000 0.000000
											CHANNELS 3 Xrotation Yrotation Zrotation
											End Site
											{
												OFFSET 1.082298 3.499527 0.457670
											}
										}
									}
								}
								JOINT RightHandRing1
								{
									OFFSET -13.966164 -0.268127 -3.067488
									CHANNELS 3 Xrotation Yrotation Zrotation
									JOINT RightHandRing2
									{
										OFFSET -3.162567 0.000000 0.000000
										CHANNELS 3 Xrotation Yrotation Zrotation
										JOINT RightHandRing3
										{
											OFFSET -3.324348 0.000000 0.000000
											CHANNELS 3 Xrotation Yrotation Zrotation
											End Site
											{
												OFFSET 0.861900 3.184998 0.405154
											}
										}
									}
								}
								JOINT RightHandPinky1
								{
									OFFSET -13.131393 -0.168503 -5.746925
									CHANNELS 3 Xrotation Yrotation Zrotation
									JOINT RightHandPinky2
									{
										OFFSET -2.849182 0.000000 0.000000
										CHANNELS 3 Xrotation Yrotation Zrotation
										JOINT RightHandPinky3
										{
											OFFSET -2.805038 0.000000 0.000000
											CHANNELS 3 Xrotation Yrotation Zrotation
											End Site
											{
												OFFSET 0.882500 2.642609 0.325652
											}
										}
									}
								}
							}
							JOINT Right_Sleeve
							{
								OFFSET -6.592125 -0.646545 0.805568
								CHANNELS 3 Xrotation Yrotation Zrotation
								End Site
								{
									OFFSET 0.000179 20.275787 -0.000000
								}
							}
						}
					}
				}
				JOINT Bind_Right_JacketString
				{
					OFFSET -3.534800 11.969597 7.200700
					CHANNELS 3 Xrotation Yrotation Zrotation
					JOINT Bind_Right_JacketString1
					{
						OFFSET -0.319900 -6.102600 2.794100
						CHANNELS 3 Xrotation Yrotation Zrotation
						End Site
						{
							OFFSET 0.000000 6.719452 0.000000
						}
					}
				}
				JOINT Bind_Left_JacketString
				{
					OFFSET 2.904800 11.969597 7.200700
					CHANNELS 3 Xrotation Yrotation Zrotation
					JOINT Bind_Left_JacketString1
					{
						OFFSET 0.364800 -5.904503 3.186800
						CHANNELS 3 Xrotation Yrotation Zrotation
						End Site
						{
							OFFSET 0.000000 6.719513 0.000000
						}
					}
				}
				JOINT HairE
				{
					OFFSET 5.915200 17.612701 -11.592200
					CHANNELS 3 Xrotation Yrotation Zrotation
					JOINT HairE1
					{
						OFFSET 0.289200 -7.171898 -1.284500
						CHANNELS 3 Xrotation Yrotation Zrotation
						End Site
						{
							OFFSET 0.000000 7.291756 0.000000
						}
					}
				}
				JOINT HairF
				{
					OFFSET -0.864800 17.612701 -11.592200
					CHANNELS 3 Xrotation Yrotation Zrotation
					JOINT HairF1
					{
						OFFSET 0.000000 -14.087097 -2.127501
						CHANNELS 3 Xrotation Yrotation Zrotation
						End Site
						{
							OFFSET 0.000000 14.246841 0.000000
						}
					}
				}
				JOINT HairG
				{
					OFFSET -8.087700 17.612701 -11.592200
					CHANNELS 3 Xrotation Yrotation Zrotation
					JOINT HairG1
					{
						OFFSET -0.293600 -6.081398 -0.910100
						CHANNELS 3 Xrotation Yrotation Zrotation
						End Site
						{
							OFFSET 0.000000 6.156120 0.000000
						}
					}
				}
			}
		}
	}
	JOINT Pouch
	{
		OFFSET 0.000000 4.394501 10.847300
		CHANNELS 3 Xrotation Yrotation Zrotation
		End Site
		{
			OFFSET 0.000000 21.880577 0.000000
		}
	}
	JOINT Bag
	{
		OFFSET -13.229000 4.813004 -0.593300
		CHANNELS 3 Xrotation Yrotation Zrotation
		End Site
		{
			OFFSET 0.000000 21.880577 0.000000
		}
	}
	JOINT OccupyGuyFacialAnim_Joint
	{
		OFFSET 1.000000 -70.206398 -1.655000
		CHANNELS 3 Xrotation Yrotation Zrotation
		End Site
		{
			OFFSET 0.000000 21.880577 0.000000
		}
	}
}
MOTION
Frames: 4
Frame Time: 0.033333
-0.024710 39.359810 1.242655 -9.551077 -0.628365 0.960226 0.000001 -0.000000 -0.000000 -84.067949 -0.674693 12.487800 87.437657 -8.221559 -5.210001 6.275018 0.134526 3.363243 -0.000000 0.000000 -0.000000 0.000000 0.000000 -0.000001 -85.456533 -1.847570 -7.219956 91.776214 -10.105300 0.541763 1.975436 -2.598346 -4.487418 0.000000 0.000000 0.000000 0.000000 -0.000000 -0.000000 13.879916 -0.511690 -0.769568 2.250088 -0.085529 -0.192037 2.249955 -0.103094 -0.325834 3.383608 -0.735756 -0.276111 -10.521165 1.973771 0.454084 -0.000000 -0.000000 0.000000 -0.000000 -0.000000 0.000000 -0.000000 -0.000000 0.000000 -0.000000 -0.000000 0.000000 -0.000000 -0.000000 -0.000000 -0.000000 -0.000000 0.000000 -0.000000 -0.000000 -0.000000 -0.000000 -0.000000 0.000000 -0.000000 -0.000000 0.000000 1.762904 -12.691892 -7.390961 -38.759845 -25.566428 -58.225157 -0.000010 -39.520304 -0.000001 42.543944 -14.267586 38.637096 -0.796442 7.960841 -3.834622 7.214639 19.857011 -8.412171 0.000000 0.000001 0.000001 0.371537 4.233299 -18.478546 0.567529 2.517377 -25.405433 0.000002 -0.000001 0.000002 0.214737 3.680919 -13.006358 0.519306 2.413300 -24.284229 0.000003 0.000003 -0.000001 1.438787 8.836120 -13.082419 0.449160 2.251532 -22.560759 0.000001 0.000001 -0.000002 1.178555 7.848737 -12.789813 0.699758 2.778447 -28.266970 0.000000 0.000001 0.000001 -0.000003 0.000001 0.000000 0.278417 25.894239 6.034468 -20.538237 34.802300 32.532433 -0.000006 27.509103 0.000001 21.304371 5.510927 -30.181489 -12.729410 -9.989149 9.692901 6.358368 -14.447607 -2.112220 -0.000000 -0.000001 0.000000 -1.689243 0.198998 26.189802 0.612770 -2.311034 29.696764 0.000002 -0.000001 -0.000002 -0.108352 -2.680870 20.121461 0.655575 -2.384476 30.741776 0.000001 -0.000000 -0.000001 1.360479 -6.027446 26.138195 0.356889 -1.789630 22.553783 0.000001 0.000001 -0.000005 4.002539 -10.781399 28.111271 0.403524 -1.897998 24.003605 -0.000001 0.000001 -0.000001 -0.000002 -0.000000 -0.000002 0.000000 -0.000000 0.000000 0.000000 -0.000000 0.000000 0.000000 -0.000000 0.000000 0.000000 -0.000000 0.000000 0.000000 -0.000000 0.000000 0.000000 -0.000000 0.000000 0.000000 -0.000000 0.000000 0.000000 -0.000000 0.000000 0.000000 -0.000000 0.000000 0.000000 -0.000000 0.000000 0.000001 -0.000000 -0.000000 0.000001 -0.000000 -0.000000 0.000001 -0.000000 -0.000000 
-0.022922 39.355408 1.242294 -9.551699 -0.628339 0.960133 -0.000000 0.000000 -0.000000 -84.074977 -0.692286 12.479539 87.467450 -8.207851 -5.209971 6.255459 0.134551 3.351754 -0.000000 0.000000 0.000000 0.000000 -0.000000 0.000001 -85.465474 -1.844684 -7.223057 91.775886 -10.101851 0.541796 1.987021 -2.582842 -4.492178 0.000000 -0.000000 0.000000 -0.000000 0.000000 -0.000000 13.887968 -0.511714 -0.766995 2.250086 -0.085528 -0.192037 2.249955 -0.103094 -0.325834 3.383604 -0.735756 -0.276122 -10.507696 1.988801 0.461121 -0.000000 0.000000 -0.000000 -0.000000 0.000000 -0.000000 -0.000000 0.000000 0.000000 -0.000000 0.000000 -0.000000 -0.000000 0.000000 -0.000000 -0.000000 0.000000 -0.000000 -0.000000 0.000000 -0.000000 -0.000000 0.000000 -0.000000 -0.000000 0.000000 -0.000000 1.737973 -12.695281 -7.504430 -38.651426 -25.626467 -58.058575 -0.000003 -39.639133 -0.000006 42.472309 -14.204804 38.462462 -0.796448 7.960834 -3.834622 7.233371 19.912776 -8.411057 -0.000001 -0.000000 -0.000001 0.374142 4.240959 -18.557916 0.563790 2.509500 -25.320304 0.000001 -0.000000 -0.000002 0.229031 3.742451 -13.050425 0.519300 2.413305 -24.284220 -0.000001 -0.000001 -0.000001 1.450750 8.866318 -13.131509 0.450191 2.254043 -22.587553 -0.000000 0.000000 -0.000004 1.190948 7.878201 -12.860743 0.701985 2.782598 -28.312915 0.000002 0.000000 -0.000001 0.000001 -0.000000 0.000001 0.245188 25.672203 6.148684 -20.026197 35.325725 32.209386 0.000004 27.707159 -0.000008 21.065844 5.423055 -30.277330 -12.729409 -9.989156 9.692899 6.212641 -14.118793 -2.206738 0.000003 -0.000001 0.000001 -1.701842 0.273551 25.953054 0.637559 -2.353948 30.305980 -0.000002 0.000001 -0.000001 -0.077826 -2.748147 19.853152 0.661827 -2.394941 30.891460 0.000001 0.000000 -0.000003 1.357896 -6.047512 25.802238 0.361546 -1.800817 22.702811 0.000000 0.000000 -0.000003 4.110736 -11.028413 27.935586 0.404058 -1.899165 24.019460 -0.000000 0.000001 0.000001 0.000001 -0.000001 -0.000000 -0.000000 -0.000000 0.000000 -0.000000 -0.000000 0.000000 -0.000000 -0.000000 -0.000000 -0.000000 -0.000000 -0.000000 -0.000000 -0.000000 0.000000 -0.000000 -0.000000 0.000000 -0.000000 -0.000000 -0.000000 -0.000000 -0.000000 -0.000000 -0.000000 -0.000000 0.000000 -0.000000 -0.000000 0.000000 -0.000000 0.000000 -0.000000 -0.000000 0.000000 -0.000000 -0.000000 0.000000 -0.000000 
-0.019090 39.352386 1.243266 -9.583200 -0.628325 0.959762 -0.000000 -0.000000 0.000000 -84.050477 -0.697925 12.476030 87.481036 -8.222306 -5.209999 6.248812 0.134292 3.347017 0.000000 0.000000 0.000000 -0.000001 0.000000 0.000000 -85.441213 -1.843811 -7.239674 91.789027 -10.101388 0.541786 1.982134 -2.556932 -4.489497 0.000000 -0.000002 0.000000 -0.000000 0.000000 -0.000000 13.940539 -0.540724 -0.744404 2.250087 -0.085528 -0.192037 2.249955 -0.103094 -0.325834 3.383606 -0.735755 -0.287295 -10.454544 2.005550 0.484310 0.000000 -0.000000 0.000000 0.000000 -0.000000 0.000000 0.000000 -0.000000 0.000000 0.000000 -0.000000 0.000000 0.000000 -0.000000 0.000000 0.000000 -0.000000 0.000000 0.000000 -0.000000 0.000000 0.000000 -0.000000 0.000000 0.000000 -0.000000 0.000000 1.722538 -12.691214 -7.578366 -38.541450 -25.663826 -57.916985 0.000029 -39.758033 0.000031 42.382888 -14.147802 38.302956 -0.796455 7.960816 -3.834629 7.230284 19.905816 -8.407389 0.000001 -0.000001 0.000001 0.374813 4.242925 -18.608791 0.567774 2.517870 -25.411155 0.000001 -0.000001 0.000001 0.227909 3.737401 -13.103161 0.519745 2.414297 -24.294988 0.000002 0.000000 0.000001 1.453098 8.878329 -13.125505 0.449706 2.252863 -22.574728 -0.000000 0.000001 -0.000001 1.192723 7.872951 -12.899980 0.703044 2.784568 -28.334978 0.000002 -0.000001 0.000003 0.000002 0.000000 -0.000001 0.191357 25.504628 6.277113 -19.313670 36.003279 31.614371 -0.000013 27.724641 0.000029 20.600516 5.372227 -30.345219 -12.729406 -9.989163 9.692896 6.111910 -13.887446 -2.272082 -0.000000 -0.000001 0.000001 -1.709740 0.337456 25.725564 0.637852 -2.354432 30.312964 -0.000000 0.000000 -0.000005 -0.065233 -2.769880 19.629747 0.661780 -2.394866 30.890511 0.000000 -0.000000 -0.000001 1.383338 -6.115460 25.604667 0.366166 -1.811795 22.849199 -0.000001 0.000000 -0.000004 4.117426 -11.062173 27.857656 0.406442 -1.904529 24.091411 -0.000000 0.000001 -0.000001 0.000002 0.000000 -0.000003 -0.000000 0.000000 0.000000 0.000001 -0.000000 0.000000 -0.000000 0.000000 0.000000 -0.000000 0.000000 0.000000 -0.000000 0.000000 0.000000 0.000001 -0.000000 0.000000 -0.000000 0.000000 0.000000 -0.000000 0.000000 0.000000 -0.000000 0.000000 0.000000 0.000001 -0.000000 0.000000 -0.000000 -0.000000 0.000000 -0.000000 -0.000000 0.000000 -0.000000 -0.000000 0.000000 
-0.015181 39.349777 1.233027 -9.620654 -0.628369 0.959196 0.000000 0.000000 -0.000000 -84.018314 -0.701715 12.467785 87.482033 -8.194955 -5.210019 6.254092 0.133721 3.346439 -0.000000 0.000000 -0.000000 0.000000 0.000000 -0.000000 -85.409829 -1.857220 -7.249047 91.772484 -10.102664 0.541788 1.999746 -2.545169 -4.505326 -0.000000 -0.000002 0.000000 -0.000000 0.000000 -0.000001 14.001198 -0.578830 -0.730846 2.250086 -0.085528 -0.192037 2.249956 -0.103094 -0.325854 3.383607 -0.735756 -0.294844 -10.383992 2.054157 0.426974 -0.000000 -0.000000 0.000000 -0.000000 -0.000000 0.000000 -0.000000 -0.000000 0.000000 -0.000000 -0.000000 0.000000 -0.000000 0.000000 0.000000 -0.000000 -0.000000 0.000000 -0.000000 0.000000 0.000000 -0.000000 -0.000000 0.000000 -0.000000 -0.000000 0.000000 1.712735 -12.679240 -7.631022 -38.437897 -25.736453 -57.773258 -0.000018 -39.854526 -0.000023 42.266276 -14.080216 38.155448 -0.796444 7.960820 -3.834635 7.193338 19.844254 -8.393767 0.000002 -0.000001 0.000001 0.366932 4.219517 -18.543042 0.564630 2.511239 -25.339262 0.000002 0.000001 -0.000000 0.215529 3.684319 -13.075146 0.520138 2.415163 -24.304311 0.000003 0.000000 0.000001 1.443809 8.843346 -13.117065 0.450228 2.254111 -22.588274 -0.000004 -0.000001 -0.000002 1.180037 7.820802 -12.895571 0.701407 2.781493 -28.301043 0.000002 -0.000001 0.000003 0.000001 0.000000 -0.000001 0.152129 25.312167 6.359272 -18.510783 36.847597 30.895978 -0.000005 27.384581 0.000003 19.762584 5.562571 -30.357838 -12.729406 -9.989165 9.692896 6.062384 -13.769920 -2.304541 0.000001 -0.000001 0.000000 -1.704008 0.349383 25.610761 0.636499 -2.352119 30.279895 -0.000001 0.000000 0.000000 -0.069233 -2.751597 19.512874 0.658508 -2.389394 30.812158 0.000000 0.000001 0.000003 1.414700 -6.179539 25.614065 0.368417 -1.817124 22.920337 -0.000000 0.000001 0.000000 4.099337 -11.028000 27.859420 0.409270 -1.910827 24.176213 -0.000000 0.000000 0.000000 0.000003 0.000001 -0.000001 0.000000 0.000000 0.000000 0.000000 0.000000 -0.000000 0.000000 0.000000 0.000000 0.000000 0.000000 0.000000 0.000000 0.000000 0.000000 0.000000 0.000000 -0.000000 0.000000 0.000000 0.000000 0.000000 0.000000 0.000000 0.000000 0.000000 0.000000 0.000000 0.000000 -0.000000 0.000000 0.000000 -0.000000 0.000000 0.000000 -0.000000 0.000000 0.000000 -0.000000 
